<?xml version="1.0" standalone="no"?>
<!DOCTYPE svg PUBLIC "-//W3C//DTD SVG 20010904//EN"
 "http://www.w3.org/TR/2001/REC-SVG-20010904/DTD/svg10.dtd">
<svg version="1.0" xmlns="http://www.w3.org/2000/svg"
 width="730.000000pt" height="730.000000pt" viewBox="0 0 730.000000 730.000000"
 preserveAspectRatio="xMidYMid meet">
<metadata>
Created by potrace 1.14, written by Peter Selinger 2001-2017
</metadata>
<g transform="translate(0.000000,730.000000) scale(0.100000,-0.100000)"
fill="#000000" stroke="none">
<path d="M3449 7226 c-2 -2 -47 -6 -99 -10 -98 -6 -146 -11 -209 -21 -132 -21
-155 -25 -160 -34 -4 -5 -6 -543 -6 -1195 0 -652 -2 -1186 -4 -1186 -3 0 -36
22 -75 49 -129 88 -279 140 -466 159 -84 9 -386 8 -425 -1 -11 -3 -59 -12
-107 -21 -424 -80 -678 -326 -679 -660 -1 -348 184 -523 676 -641 55 -13 116
-27 135 -30 19 -3 53 -10 75 -15 22 -5 55 -11 72 -15 619 -108 841 -246 858
-534 9 -150 -31 -259 -134 -362 -40 -40 -91 -79 -128 -98 -236 -119 -565 -148
-855 -76 -237 59 -461 209 -565 377 l-35 57 -89 -45 -88 -46 18 -37 c54 -104
175 -232 299 -315 260 -172 596 -242 972 -201 334 36 606 178 723 377 113 193
112 500 -2 676 -99 153 -317 281 -575 337 -132 29 -257 55 -281 59 -16 3 -77
15 -135 27 -58 11 -116 23 -129 25 -84 16 -236 58 -299 83 -211 83 -300 186
-310 357 -18 333 304 549 808 543 267 -3 437 -48 587 -155 56 -40 145 -134
171 -180 9 -15 19 -12 91 30 l81 48 0 1229 c0 976 3 1229 13 1230 6 0 21 2 32
4 11 2 65 7 120 11 55 3 109 8 120 10 33 7 314 6 410 0 84 -6 116 -9 205 -21
19 -3 55 -7 80 -10 42 -5 55 -7 120 -20 14 -3 36 -7 50 -10 59 -11 77 -16 169
-39 274 -72 470 -147 719 -276 411 -215 753 -492 1058 -860 393 -473 669
-1110 739 -1709 4 -30 9 -63 11 -75 8 -42 18 -255 18 -396 0 -150 -9 -298 -28
-430 -3 -19 -8 -55 -11 -80 -3 -25 -11 -65 -16 -90 -6 -25 -13 -56 -15 -70
-19 -108 -128 -466 -168 -553 -8 -18 -36 -79 -61 -137 -306 -687 -883 -1290
-1555 -1624 -155 -76 -226 -108 -358 -158 -197 -75 -521 -157 -684 -174 -35
-3 -65 -8 -67 -10 -8 -8 -4 -189 5 -188 5 1 46 7 91 13 86 13 95 14 183 32
650 131 1275 454 1753 909 113 107 288 298 357 390 14 19 34 45 46 59 28 36
144 200 144 205 0 3 18 32 40 65 22 33 40 63 40 66 0 4 9 20 21 36 19 27 179
342 179 353 0 3 11 29 24 58 108 239 222 693 254 1013 15 150 7 616 -13 770
-1 11 -6 47 -10 80 -4 33 -9 67 -10 75 -2 8 -10 56 -19 105 -52 283 -173 639
-307 906 -180 360 -388 648 -674 934 -210 211 -326 307 -545 452 -376 249
-719 400 -1145 503 -156 37 -198 46 -280 56 -22 3 -49 7 -60 9 -11 2 -49 7
-85 10 -36 4 -76 9 -90 12 -28 6 -506 14 -511 9z"/>
<path d="M2705 7105 c-44 -13 -112 -32 -151 -44 -125 -36 -394 -149 -563 -237
-680 -354 -1224 -911 -1566 -1605 -153 -310 -284 -729 -320 -1024 -4 -27 -8
-57 -10 -65 -3 -8 -7 -44 -10 -80 -4 -36 -8 -76 -11 -90 -6 -33 -6 -535 0
-580 2 -19 7 -66 11 -105 3 -38 8 -79 10 -90 2 -11 7 -42 10 -70 3 -27 10 -69
16 -93 5 -23 12 -58 15 -78 26 -163 115 -452 212 -689 33 -79 140 -292 197
-390 189 -326 461 -658 734 -895 35 -30 69 -60 75 -65 6 -6 77 -60 158 -120
462 -345 982 -565 1553 -659 50 -8 118 -18 153 -21 35 -4 73 -9 85 -12 37 -8
541 -13 554 -5 10 7 13 480 15 2292 l3 2284 104 -159 c105 -160 373 -567 617
-935 71 -107 132 -202 136 -210 4 -8 38 -60 76 -115 63 -93 70 -100 102 -102
34 -1 37 2 113 120 76 118 649 994 828 1267 l89 135 0 -220 c0 -121 1 -641 3
-1155 l2 -935 98 -3 97 -2 0 1305 0 1305 -124 0 -123 0 -50 -77 c-28 -43 -134
-206 -236 -363 -101 -157 -204 -315 -228 -353 -24 -37 -80 -122 -124 -190 -44
-67 -141 -215 -214 -330 l-135 -207 -182 277 c-100 153 -231 352 -290 443 -60
91 -178 271 -264 400 -85 129 -157 239 -160 245 -3 5 -27 43 -54 83 l-49 72
-118 0 -119 0 0 -2345 c0 -2226 -1 -2345 -17 -2346 -96 -8 -385 12 -528 35
-36 6 -180 33 -215 41 -14 2 -34 7 -45 9 -187 38 -526 161 -745 271 -788 395
-1399 1096 -1689 1939 -51 147 -114 405 -136 551 -9 61 -18 121 -20 134 -27
167 -27 663 0 832 2 13 11 71 20 129 9 58 24 132 32 165 8 33 17 71 19 85 9
50 47 178 91 305 178 513 489 989 890 1362 60 57 132 120 159 140 27 21 54 43
59 49 6 6 58 45 116 87 314 227 692 410 1047 509 l82 23 0 97 c0 54 -1 98 -2
97 -2 0 -39 -11 -83 -24z"/>
</g>
</svg>
